<svg id="圖層_1" data-name="圖層 1" xmlns="http://www.w3.org/2000/svg" viewBox="0 0 128 128"><path d="M58.69,37.44l2.65-5.31,5.32-2.66-5.32-2.66L58.69,21.5,56,26.81l-5.31,2.66L56,32.13ZM34.78,48.06l4.43-8.85,8.85-4.43-8.85-4.43L34.78,21.5l-4.43,8.85L21.5,34.78l8.85,4.43ZM93.22,69.31l-4.43,8.86-8.85,4.42L88.79,87l4.43,8.86L97.65,87l8.85-4.43-8.85-4.42Zm11.72-32.17L90.86,23.06a5.31,5.31,0,0,0-7.52,0L23.06,83.35a5.3,5.3,0,0,0,0,7.51l14.08,14.08a5.31,5.31,0,0,0,7.52,0l60.28-60.29a5.3,5.3,0,0,0,0-7.51ZM81.17,55.28l-8.45-8.45L87.1,32.45l8.45,8.45Z"/></svg>