<svg id="圖層_1" data-name="圖層 1" xmlns="http://www.w3.org/2000/svg" viewBox="0 0 512 512">
<defs>
    <linearGradient id="grad1" x1="0%" y1="100%" x2="0%" y2="0%">
      <stop offset="0%" style="stop-color:rgb(186,152,248);stop-opacity:1" />
      <stop offset="100%" style="stop-color:rgb(100,48,245);stop-opacity:1" />
    </linearGradient>

  <mask id="myMask">
    <!-- Everything under a white pixel will be visible -->
    <rect x="0" y="256" width="512" height="512" fill="white" />
  </mask>

</defs>
	<path d="M512,261.34v59.22H501.32L430.67,376h-88L272,320.56H261.34V261.34h44L376,316.74h21.36L468,261.34Zm-81.33,125.3h-88L272,442H261.34v59.22h44L376,445.86h21.36L468,501.26h44V442H501.32ZM109.84,431.36h59.22V420.68l-28.24-78.77V331.24H81.6v10.67l28.24,78.77Zm31-170H37.6L0,292.85V501.26H59.22v-170L69.9,320.56h70.92Zm50.62,170L180.76,442H109.84v59.22H213.06l37.6-31.52V261.34H191.44ZM10.68,66.14H0v59.22H44L114.65,70h136V10.74H81.33ZM44,136H0v59.22H10.68l70.65,55.4H250.66V191.44h-136Zm48.3-34.95h0l-10.68,8.33V152l10.68,8.33H250.66V101.09ZM343,109.42v50.89h76.79L430.43,152V101.09H353.64Zm-37.62,15.94L376,70H512V10.74H342.67L272,66.14H261.34v59.22Zm125.33,125.3,70.65-55.4H512V136H468l-70.65,55.4h-136v59.22Z"/>

	<path fill="url(#grad1)" mask="url(#myMask)" d="M512,261.34v59.22H501.32L430.67,376h-88L272,320.56H261.34V261.34h44L376,316.74h21.36L468,261.34Zm-81.33,125.3h-88L272,442H261.34v59.22h44L376,445.86h21.36L468,501.26h44V442H501.32ZM109.84,431.36h59.22V420.68l-28.24-78.77V331.24H81.6v10.67l28.24,78.77Zm31-170H37.6L0,292.85V501.26H59.22v-170L69.9,320.56h70.92Zm50.62,170L180.76,442H109.84v59.22H213.06l37.6-31.52V261.34H191.44ZM10.68,66.14H0v59.22H44L114.65,70h136V10.74H81.33ZM44,136H0v59.22H10.68l70.65,55.4H250.66V191.44h-136Zm48.3-34.95h0l-10.68,8.33V152l10.68,8.33H250.66V101.09ZM343,109.42v50.89h76.79L430.43,152V101.09H353.64Zm-37.62,15.94L376,70H512V10.74H342.67L272,66.14H261.34v59.22Zm125.33,125.3,70.65-55.4H512V136H468l-70.65,55.4h-136v59.22Z"/>
</svg>

