<?xml version="1.0" encoding="utf-8"?>
<!-- Generator: Adobe Illustrator 22.1.0, SVG Export Plug-In . SVG Version: 6.00 Build 0)  -->
<svg version="1.1" id="圖層_1" xmlns="http://www.w3.org/2000/svg" xmlns:xlink="http://www.w3.org/1999/xlink" x="0px" y="0px"
	 viewBox="0 0 512 512" style="enable-background:new 0 0 512 512;" xml:space="preserve">
<style type="text/css">
	.st0{fill:#4D4D4D;}
	.st1{fill:#9BFF00;}
</style>
<g>
	<path class="st0" d="M408.8,136.2V248l-145,1v-61.4c18.3-3.7,32-19.9,32-39.2v-42.7c0-19.3-13.8-35.5-32-39.2V0h8.8
		C347.7,0,408.8,61.1,408.8,136.2z"/>
	<path class="st1" d="M255.8,81.7c13.3,0,24,10.8,24,24v42.7c0,13.3-10.8,24-24,24c-13.3,0-24-10.8-24-24v-42.7
		C231.7,92.4,242.5,81.7,255.8,81.7z"/>
	<path class="st0" d="M238.9,0h8.8v66.4c-18.3,3.7-32,19.9-32,39.2v42.7c0,19.3,13.8,35.5,32,39.2v61.5l-145,1v-114
		C102.7,61.1,163.8,0,238.9,0z"/>
	<path class="st0" d="M272.6,512h-33.6c-75.1,0-136.2-61.1-136.2-136.2V266.2l306-2.2v111.7C408.8,450.9,347.7,512,272.6,512z"/>
</g>
</svg>
