<svg id="圖層_1" data-name="圖層 1" xmlns="http://www.w3.org/2000/svg" viewBox="0 0 128 128"><path d="M92.33,21.5H35.67A14.16,14.16,0,0,0,21.5,35.67V92.33A14.16,14.16,0,0,0,35.67,106.5H92.33A14.16,14.16,0,0,0,106.5,92.33V35.67A14.16,14.16,0,0,0,92.33,21.5ZM35.67,30.94H92.33a4.73,4.73,0,0,1,4.73,4.73V75.14L81.94,62.25a13.09,13.09,0,0,0-16.62,0L30.94,90.92V35.67A4.73,4.73,0,0,1,35.67,30.94ZM92.33,97.06h-54L71.37,69.48a3.68,3.68,0,0,1,4.39,0l21.3,18.13v4.72A4.73,4.73,0,0,1,92.33,97.06Z"/><circle cx="45.11" cy="47.47" r="7.08"/></svg>